<svg xmlns="http://www.w3.org/2000/svg" width="99" height="99" viewBox="0 0 99 99">
  <path id="yammer" d="M51.2,24,36.393,61.993C33.6,69.207,31.185,76.8,21.585,77.178c-1.6,0-4.015,0-5.207-.815-2.385-1.193-2.007-4.393,0-5.585a4.992,4.992,0,0,1,2.385-.407c6.807.407,8.407-3.607,10.415-9.193L13.993,24c-.815-2.007-.407-4.015,1.6-4.8,2.793-1.193,4.393,0,5.585,2.385,4.015,10.007,8,20.393,11.985,30.4,0,0,.407.407.407,0l3.607-9.193c2.793-6.807,5.207-13.615,8-20.393a3.506,3.506,0,0,1,3.607-2.793c.815,0,1.193,0,1.6.407.815.378,1.629,1.978.815,3.985ZM0,91.2A4.63,4.63,0,0,0,4.8,96H91.2A4.63,4.63,0,0,0,96,91.2V4.8A4.63,4.63,0,0,0,91.2,0H4.8A4.63,4.63,0,0,0,0,4.8ZM53.993,38.4c1.6-2.007,13.993-11.607,16.407-12.393A3.472,3.472,0,0,1,73.6,32c-1.6,1.6-16,7.593-18.385,8-.815,0-1.6.407-1.6,0-.407-.407-.029-1.193.378-1.6ZM80,45.207a3.35,3.35,0,0,1,2.385,3.2h0A3.387,3.387,0,0,1,80,51.607c-2.007.407-13.207-.407-18.385-2.007-1.6-.407-2.385-.815-2.793-1.6,0-.815,1.193-1.193,2.793-1.6,5.178-.407,16.378-1.6,18.385-1.193ZM53.585,57.6a1.2,1.2,0,0,1,1.6,0c2.793.407,16.815,6.4,18.385,8a3.472,3.472,0,0,1-3.2,5.993C67.985,71.185,55.564,61.178,53.964,59.2c-.378-.407-.756-1.193-.378-1.6Z" transform="translate(1.5 1.5)" fill="#fff" stroke="#575757" stroke-width="3"/>
</svg>
