<?xml version="1.0" encoding="utf-8"?>
<!-- Generator: Adobe Illustrator 25.2.3, SVG Export Plug-In . SVG Version: 6.00 Build 0)  -->
<svg version="1.1" id="circle4" xmlns="http://www.w3.org/2000/svg" xmlns:xlink="http://www.w3.org/1999/xlink" x="0px" y="0px"
	 viewBox="0 0 317.5 246" style="enable-background:new 0 0 317.5 246;" xml:space="preserve">
<style type="text/css">
	.st0{enable-background:new    ;}
	.st1{fill:#111112;}
	.st2{fill:none;}
</style>
<g class="st0">
	<path d="M53.9,181v-23.8h-52v-22.3l50.3-72.1h26.5v72.8h18.2v21.6H78.7V181H53.9z M27,135.6h26.9V95h-0.5
		c-1.7,3.4-4.5,7.9-8.3,13.6L27,135.6z"/>
</g>
<path id="Path_306" d="M194.5,0c-36,0-70.2,15.8-93.5,43.2v11.3C122.8,24.6,157.6,7,194.5,7c64,0.1,115.9,52,116,116
	c-0.1,64-52,115.9-116,116c-36.9,0-71.7-17.6-93.5-47.4v11.3c23.3,27.4,57.5,43.2,93.5,43.2c67.9-0.1,122.9-55.1,123-123
	C317.4,55.1,262.4,0.1,194.5,0z"/>
<g>
	<path d="M161.2,105.3l5.4,7.5h-2.4l-5.1-7.2H155v7.2h-1.8V94.7h6c2.3,0,4,0.5,5,1.4s1.5,2.2,1.5,3.9c0,1.4-0.4,2.5-1.2,3.4
		S162.6,105,161.2,105.3z M155.1,103.9h4.3c1.5,0,2.6-0.4,3.3-1.1s1.1-1.6,1.1-2.7c0-1.2-0.4-2.1-1.1-2.7c-0.7-0.6-1.9-0.9-3.6-0.9
		h-4V103.9z"/>
	<path d="M179.2,107.1h-9.6c0,1.3,0.4,2.3,1.2,3.2c0.8,0.8,1.9,1.3,3.4,1.3c0.8,0,1.6-0.1,2.3-0.4c0.7-0.2,1.4-0.5,1.9-0.8v1.7
		c-1.4,0.7-2.9,1.1-4.5,1.1c-1.9,0-3.4-0.6-4.5-1.7s-1.7-2.7-1.7-4.7s0.6-3.6,1.7-4.9c1.1-1.2,2.6-1.8,4.5-1.8c1.8,0,3.1,0.6,4,1.7
		s1.3,2.6,1.3,4.3C179.3,106.3,179.3,106.7,179.2,107.1z M177.5,105.7c0-1.2-0.3-2.2-0.9-2.9s-1.5-1.1-2.7-1.1s-2.1,0.4-2.8,1.1
		s-1.2,1.7-1.3,2.9H177.5z"/>
	<path d="M192.8,118.9H191v-6.7c-1.1,0.6-2.4,1-3.8,1c-1.8,0-3.2-0.6-4.3-1.8c-1.1-1.2-1.7-2.7-1.7-4.6c0-2,0.6-3.6,1.8-4.9
		s2.9-1.9,5-1.9c1.6,0,3.2,0.3,4.7,0.8v18.1H192.8z M191,110.5v-8.3c-0.9-0.3-1.9-0.4-3-0.4c-1.6,0-2.9,0.5-3.7,1.4
		c-0.8,1-1.2,2.1-1.2,3.5c0,1.5,0.4,2.7,1.2,3.5s1.9,1.2,3.2,1.2C188.8,111.5,189.9,111.2,191,110.5z"/>
	<path d="M196.5,108.4v-8h1.8v7.7c0,1.1,0.3,2,0.8,2.5s1.5,0.8,3,0.8c0.9,0,2-0.1,3.1-0.4v-10.6h1.8v12c-2,0.5-3.7,0.8-5.1,0.8
		c-1.9,0-3.3-0.4-4.2-1.2C196.9,111.1,196.5,109.9,196.5,108.4z"/>
	<path d="M221.4,107.1h-9.6c0,1.3,0.4,2.3,1.2,3.2c0.8,0.8,1.9,1.3,3.4,1.3c0.8,0,1.6-0.1,2.3-0.4c0.7-0.2,1.4-0.5,1.9-0.8v1.7
		c-1.4,0.7-2.9,1.1-4.5,1.1c-1.9,0-3.4-0.6-4.5-1.7s-1.7-2.7-1.7-4.7s0.6-3.6,1.7-4.9c1.1-1.2,2.6-1.8,4.5-1.8c1.8,0,3.1,0.6,4,1.7
		s1.3,2.6,1.3,4.3C221.5,106.3,221.5,106.7,221.4,107.1z M219.7,105.7c0-1.2-0.3-2.2-0.9-2.9s-1.5-1.1-2.7-1.1s-2.1,0.4-2.8,1.1
		s-1.2,1.7-1.3,2.9H219.7z"/>
	<path d="M231.7,102.3c-1.1-0.5-2.3-0.7-3.5-0.7c-1,0-1.7,0.2-2.1,0.5c-0.5,0.4-0.7,0.9-0.7,1.5s0.3,1,0.8,1.3s1.5,0.7,2.7,1
		c1.3,0.4,2.2,0.8,2.7,1.4c0.5,0.5,0.8,1.2,0.8,2.1c0,1-0.4,1.9-1.2,2.5c-0.8,0.7-2,1-3.5,1c-0.8,0-1.6-0.1-2.3-0.2
		s-1.3-0.3-1.7-0.5v-1.7c0.5,0.3,1.1,0.5,1.8,0.6s1.5,0.3,2.2,0.3c1,0,1.7-0.2,2.2-0.5s0.7-0.8,0.7-1.4c0-0.7-0.4-1.3-1.1-1.5
		c-0.7-0.3-1.6-0.6-2.6-0.9s-1.8-0.7-2.5-1.2c-0.6-0.5-0.9-1.3-0.9-2.3c0-1.1,0.4-1.9,1.2-2.6s2-1,3.5-1c0.7,0,1.3,0.1,1.9,0.2
		s1.1,0.2,1.5,0.4v1.7H231.7z"/>
	<path d="M241.6,100.4v1.6h-4v6.6c0,1,0.2,1.7,0.6,2.2c0.4,0.4,1,0.7,1.8,0.7c0.4,0,1-0.1,1.6-0.2v1.5c-0.6,0.2-1.3,0.3-2.1,0.3
		c-2.5,0-3.7-1.4-3.7-4.2v-6.8h-2.2v-1.6h2.2v-3.6h1.8v3.6L241.6,100.4L241.6,100.4z"/>
	<path d="M173.5,144l-2.3-5.5h-8.5l-2.3,5.5h-2l7.8-18.1h1.7l7.7,18.1H173.5z M163.4,136.9h7.1l-3.5-8.5l0,0L163.4,136.9z"/>
	<path d="M186.6,133.8c-0.4-0.2-0.9-0.4-1.5-0.6s-1.3-0.2-1.9-0.2c-1.5,0-2.6,0.4-3.5,1.3c-0.8,0.9-1.3,2-1.3,3.5
		c0,1.4,0.4,2.6,1.3,3.5c0.8,0.9,2,1.4,3.5,1.4c0.7,0,1.4-0.1,2.1-0.2c0.6-0.2,1.2-0.4,1.6-0.6v1.7c-0.5,0.2-1,0.4-1.7,0.6
		c-0.7,0.1-1.4,0.2-2.1,0.2c-2,0-3.5-0.6-4.7-1.8s-1.8-2.8-1.8-4.7s0.6-3.5,1.8-4.7s2.8-1.8,4.8-1.8c1.2,0,2.4,0.2,3.4,0.7
		L186.6,133.8L186.6,133.8z"/>
	<path d="M198.5,133.8c-0.4-0.2-0.9-0.4-1.5-0.6s-1.3-0.2-1.9-0.2c-1.5,0-2.6,0.4-3.5,1.3c-0.8,0.9-1.3,2-1.3,3.5
		c0,1.4,0.4,2.6,1.3,3.5c0.8,0.9,2,1.4,3.5,1.4c0.7,0,1.4-0.1,2.1-0.2c0.6-0.2,1.2-0.4,1.6-0.6v1.7c-0.5,0.2-1,0.4-1.7,0.6
		c-0.7,0.1-1.4,0.2-2.1,0.2c-2,0-3.5-0.6-4.7-1.8s-1.8-2.8-1.8-4.7s0.6-3.5,1.8-4.7s2.8-1.8,4.8-1.8c1.2,0,2.4,0.2,3.4,0.7
		L198.5,133.8L198.5,133.8z"/>
	<path d="M211.8,138.3h-9.6c0,1.3,0.4,2.3,1.2,3.2c0.8,0.8,1.9,1.3,3.4,1.3c0.8,0,1.6-0.1,2.3-0.4c0.7-0.2,1.4-0.5,1.9-0.8v1.7
		c-1.4,0.7-2.9,1.1-4.5,1.1c-1.9,0-3.4-0.6-4.5-1.7c-1.1-1.1-1.7-2.7-1.7-4.7s0.6-3.6,1.7-4.9c1.1-1.2,2.6-1.8,4.5-1.8
		c1.8,0,3.1,0.6,4,1.7c0.9,1.1,1.3,2.6,1.3,4.3C211.8,137.5,211.8,137.9,211.8,138.3z M210,136.9c0-1.2-0.3-2.2-0.9-2.9
		c-0.6-0.7-1.5-1.1-2.7-1.1s-2.1,0.4-2.8,1.1c-0.7,0.7-1.2,1.7-1.3,2.9H210z"/>
	<path d="M222.1,133.5c-1.1-0.5-2.3-0.7-3.5-0.7c-1,0-1.7,0.2-2.1,0.5c-0.5,0.4-0.7,0.9-0.7,1.5s0.3,1,0.8,1.3s1.5,0.7,2.7,1
		c1.3,0.4,2.2,0.8,2.7,1.4s0.8,1.2,0.8,2.1c0,1-0.4,1.9-1.2,2.5c-0.8,0.7-2,1-3.5,1c-0.8,0-1.6-0.1-2.3-0.2
		c-0.7-0.1-1.3-0.3-1.7-0.5v-1.7c0.5,0.3,1.1,0.5,1.8,0.6c0.7,0.2,1.5,0.3,2.2,0.3c1,0,1.7-0.2,2.2-0.5s0.7-0.8,0.7-1.4
		c0-0.7-0.4-1.3-1.1-1.5c-0.7-0.3-1.6-0.6-2.6-0.9c-1-0.3-1.8-0.7-2.5-1.2s-0.9-1.3-0.9-2.3c0-1.1,0.4-1.9,1.2-2.6s2-1,3.5-1
		c0.7,0,1.3,0.1,1.9,0.2c0.6,0.1,1.1,0.2,1.5,0.4v1.7H222.1z"/>
	<path d="M233.2,133.5c-1.1-0.5-2.3-0.7-3.5-0.7c-1,0-1.7,0.2-2.1,0.5c-0.5,0.4-0.7,0.9-0.7,1.5s0.3,1,0.8,1.3s1.5,0.7,2.7,1
		c1.3,0.4,2.2,0.8,2.7,1.4s0.8,1.2,0.8,2.1c0,1-0.4,1.9-1.2,2.5c-0.8,0.7-2,1-3.5,1c-0.8,0-1.6-0.1-2.3-0.2
		c-0.7-0.1-1.3-0.3-1.7-0.5v-1.7c0.5,0.3,1.1,0.5,1.8,0.6c0.7,0.2,1.5,0.3,2.2,0.3c1,0,1.7-0.2,2.2-0.5s0.7-0.8,0.7-1.4
		c0-0.7-0.4-1.3-1.1-1.5c-0.7-0.3-1.6-0.6-2.6-0.9c-1-0.3-1.8-0.7-2.5-1.2s-0.9-1.3-0.9-2.3c0-1.1,0.4-1.9,1.2-2.6s2-1,3.5-1
		c0.7,0,1.3,0.1,1.9,0.2c0.6,0.1,1.1,0.2,1.5,0.4v1.7H233.2z"/>
</g>
</svg>
