<?xml version="1.0" encoding="utf-8"?>
<!-- Generator: Adobe Illustrator 25.2.3, SVG Export Plug-In . SVG Version: 6.00 Build 0)  -->
<svg version="1.1" id="circle3" xmlns="http://www.w3.org/2000/svg" xmlns:xlink="http://www.w3.org/1999/xlink" x="0px" y="0px"
	 viewBox="0 0 302 246" style="enable-background:new 0 0 302 246;" xml:space="preserve">
<style type="text/css">
	.st0{enable-background:new    ;}
	.st1{fill:#111112;}
	.st2{fill:none;}
</style>
<g class="st0">
	<path d="M9,179.1V155c2.9,1.6,7.5,3.2,13.5,4.9c6.1,1.7,11.8,2.5,17.3,2.5c13.8,0,20.7-4.5,20.7-13.6c0-4.9-2.1-8.4-6.4-10.5
		c-4.3-2.2-10.5-3.2-18.6-3.2H22.6v-23.6H34c16.1,0,24.1-4.6,24.1-13.8c0-3.9-1.6-6.8-4.9-8.8c-3.3-2-7.8-3-13.6-3
		c-5.3,0-10.5,0.8-15.6,2.4s-9.4,3.3-12.8,5.1V70.3c3.9-2,8.8-3.8,14.9-5.3s12.8-2.2,20.1-2.2c12.9,0,22.7,3,29.4,9
		c6.7,6,10,13.7,10,22.9c0,7-1.9,13-5.7,17.9c-3.8,4.9-9,8.1-15.6,9.7v0.3c7.9,1.8,13.9,4.8,17.8,9.1c4,4.3,6,10.3,6,18.1
		c0,10.2-4.1,18.6-12.2,25.2c-8.1,6.6-19.3,9.9-33.6,9.9c-7.1,0-13.6-0.6-19.5-1.7C17.2,182.2,12.5,180.8,9,179.1z"/>
</g>
<path id="Path_305" d="M179,0c-36,0-70.2,15.8-93.5,43.2v11.3C107.3,24.6,142.1,7,179,7c64,0.1,115.9,52,116,116
	c-0.1,64-52,115.9-116,116c-36.9,0-71.7-17.6-93.5-47.4v11.3C108.8,230.2,143,246,179,246c67.9-0.1,122.9-55.1,123-123
	C301.9,55.1,246.9,0.1,179,0z"/>
<g>
	<path d="M143.5,97.3c-1.5-0.7-3.2-1.1-5-1.1c-2.2,0-4,0.7-5.3,2s-1.9,3.1-1.9,5.4s0.7,4.2,2,5.5c1.3,1.4,3.1,2.1,5.2,2.1
		c1.1,0,2.1-0.1,3-0.4c0.8-0.2,1.6-0.6,2.3-1v1.9c-0.7,0.4-1.4,0.7-2.3,0.9c-0.9,0.2-1.9,0.3-3.2,0.3c-2.7,0-4.8-0.9-6.5-2.6
		s-2.5-4-2.5-6.8s0.8-5.1,2.5-6.8s3.9-2.5,6.8-2.5c1.8,0,3.4,0.3,4.9,0.9V97.3z"/>
	<path d="M147.8,111.2c-1.2-1.2-1.8-2.8-1.8-4.7c0-1.9,0.6-3.5,1.8-4.7s2.7-1.8,4.6-1.8c1.9,0,3.4,0.6,4.6,1.8
		c1.2,1.2,1.8,2.8,1.8,4.7s-0.6,3.5-1.8,4.7s-2.7,1.8-4.6,1.8S149,112.5,147.8,111.2z M155.6,110.1c0.8-0.9,1.2-2.1,1.2-3.5
		s-0.4-2.6-1.2-3.5s-1.9-1.4-3.3-1.4s-2.5,0.4-3.3,1.3s-1.2,2.1-1.2,3.5s0.4,2.6,1.3,3.5c0.8,0.9,1.9,1.4,3.3,1.4
		C153.7,111.4,154.8,111,155.6,110.1z"/>
	<path d="M179.8,112.7H178v-8.3c0-0.9-0.2-1.6-0.7-2.1s-1.3-0.7-2.4-0.7c-0.6,0-1.2,0.1-1.9,0.2c-0.7,0.2-1.2,0.4-1.6,0.6
		c0.2,0.5,0.3,1.1,0.3,1.9v8.4h-1.8v-8.3c0-1-0.3-1.7-0.8-2.1s-1.3-0.6-2.5-0.6c-1,0-2.1,0.1-3.1,0.4v10.6h-1.8v-11.9
		c1.9-0.5,3.6-0.8,5.1-0.8c0.8,0,1.6,0.1,2.3,0.3c0.7,0.2,1.2,0.5,1.5,0.8c1.5-0.7,3.1-1.1,4.7-1.1c1.6,0,2.8,0.4,3.5,1.1s1,1.7,1,3
		V112.7z"/>
	<path d="M185.3,112.4v6.4h-1.8v-17.6c1.7-0.8,3.5-1.2,5.3-1.2c1.9,0,3.4,0.6,4.5,1.7s1.7,2.7,1.7,4.6c0,2-0.6,3.7-1.8,4.9
		c-1.2,1.2-2.8,1.9-4.7,1.9C187.2,113.1,186.1,112.9,185.3,112.4z M185.3,110.7c0.9,0.5,1.9,0.7,3.2,0.7c1.4,0,2.5-0.4,3.4-1.3
		s1.3-2.1,1.3-3.7c0-1.4-0.4-2.6-1.2-3.4s-1.9-1.3-3.3-1.3c-0.6,0-1.2,0.1-1.8,0.2s-1.1,0.3-1.5,0.5L185.3,110.7L185.3,110.7z"/>
	<path d="M198,112.7V93.5h1.8v19.2C199.8,112.7,198,112.7,198,112.7z"/>
	<path d="M214.2,107h-9.6c0,1.3,0.4,2.3,1.2,3.2c0.8,0.8,1.9,1.3,3.4,1.3c0.8,0,1.6-0.1,2.3-0.4c0.7-0.2,1.4-0.5,1.9-0.8v1.7
		c-1.4,0.7-2.9,1.1-4.5,1.1c-1.9,0-3.4-0.6-4.5-1.7s-1.7-2.7-1.7-4.7s0.6-3.6,1.7-4.9c1.1-1.2,2.6-1.8,4.5-1.8c1.8,0,3.1,0.6,4,1.7
		s1.3,2.6,1.3,4.3C214.2,106.3,214.2,106.6,214.2,107z M212.4,105.6c0-1.2-0.3-2.2-0.9-2.9s-1.5-1.1-2.7-1.1s-2.1,0.4-2.8,1.1
		s-1.2,1.7-1.3,2.9H212.4z"/>
	<path d="M223.2,100.3v1.6h-4v6.6c0,1,0.2,1.7,0.6,2.2c0.4,0.4,1,0.7,1.8,0.7c0.4,0,1-0.1,1.6-0.2v1.5c-0.6,0.2-1.3,0.3-2.1,0.3
		c-2.5,0-3.7-1.4-3.7-4.2V102h-2.2v-1.6h2.2v-3.6h1.8v3.6L223.2,100.3L223.2,100.3z"/>
	<path d="M236.1,107h-9.6c0,1.3,0.4,2.3,1.2,3.2c0.8,0.8,1.9,1.3,3.4,1.3c0.8,0,1.6-0.1,2.3-0.4c0.7-0.2,1.4-0.5,1.9-0.8v1.7
		c-1.4,0.7-2.9,1.1-4.5,1.1c-1.9,0-3.4-0.6-4.5-1.7s-1.7-2.7-1.7-4.7s0.6-3.6,1.7-4.9c1.1-1.2,2.6-1.8,4.5-1.8c1.8,0,3.1,0.6,4,1.7
		s1.3,2.6,1.3,4.3C236.2,106.3,236.1,106.6,236.1,107z M234.3,105.6c0-1.2-0.3-2.2-0.9-2.9s-1.5-1.1-2.7-1.1s-2.1,0.4-2.8,1.1
		s-1.2,1.7-1.3,2.9H234.3z"/>
	<path d="M146.4,127.6v16.3h-1.8v-16.3h-6.1v-1.7h14v1.7H146.4z"/>
	<path d="M159.6,133.1c-0.6-0.1-1.3-0.2-2.2-0.2c-0.5,0-1.1,0-1.6,0.1c-0.6,0.1-1,0.2-1.4,0.3v10.6h-1.8V132
		c1.5-0.6,3.1-0.9,4.7-0.9c0.8,0,1.5,0.1,2.2,0.2v1.8H159.6z"/>
	<path d="M170.7,143.3c-1.6,0.6-3.4,0.9-5.1,0.9c-1.6,0-2.9-0.3-3.7-1c-0.9-0.7-1.3-1.6-1.3-2.9c0-1.2,0.4-2.2,1.3-2.9
		c0.9-0.7,2.3-1.1,4.1-1.1c1.1,0,2.1,0.1,2.9,0.3V136c0-1.2-0.3-2.1-0.8-2.5c-0.6-0.5-1.4-0.7-2.5-0.7c-1.2,0-2.5,0.3-4.1,1v-1.6
		c0.5-0.2,1.2-0.5,2-0.7s1.6-0.3,2.4-0.3c1.7,0,3,0.4,3.7,1.2s1.1,2,1.1,3.6L170.7,143.3L170.7,143.3z M168.9,142.2v-4.1l-1.1-0.2
		c-0.6-0.1-1.2-0.1-1.9-0.1c-1.2,0-2.1,0.2-2.7,0.7c-0.6,0.4-0.9,1-0.9,1.8s0.3,1.4,0.8,1.8c0.5,0.4,1.4,0.6,2.6,0.6
		C166.7,142.7,167.8,142.5,168.9,142.2z"/>
	<path d="M174.3,128.6v-2.1h2.1v2.1H174.3z M174.4,143.9v-12.4h1.8v12.4H174.4z"/>
	<path d="M190.5,143.9h-1.8v-8c0-1.1-0.2-1.9-0.7-2.4s-1.4-0.7-2.6-0.7c-0.6,0-1.3,0.1-1.9,0.2c-0.6,0.1-1.2,0.2-1.6,0.4v10.5H180
		V132c2-0.5,3.9-0.8,5.4-0.8c1.8,0,3.1,0.4,3.9,1.1c0.8,0.7,1.2,1.8,1.2,3.3L190.5,143.9L190.5,143.9z"/>
	<path d="M194.1,128.6v-2.1h2.1v2.1H194.1z M194.2,143.9v-12.4h1.8v12.4H194.2z"/>
	<path d="M210.4,143.9h-1.8v-8c0-1.1-0.2-1.9-0.7-2.4s-1.4-0.7-2.6-0.7c-0.6,0-1.3,0.1-1.9,0.2c-0.6,0.1-1.2,0.2-1.6,0.4v10.5H200
		V132c2-0.5,3.9-0.8,5.4-0.8c1.8,0,3.1,0.4,3.9,1.1c0.8,0.7,1.2,1.8,1.2,3.3L210.4,143.9L210.4,143.9z"/>
	<path d="M224.7,143.9c0,1.9-0.5,3.5-1.5,4.7s-2.6,1.8-4.8,1.8c-0.9,0-1.7-0.1-2.3-0.2c-0.6-0.1-1.3-0.3-2.2-0.6v-1.8
		c1.4,0.6,2.9,0.9,4.3,0.9c1.5,0,2.6-0.4,3.4-1.1c0.8-0.7,1.2-1.9,1.2-3.5v-0.8c-1.1,0.6-2.4,1-3.8,1c-1.8,0-3.2-0.6-4.3-1.8
		s-1.7-2.7-1.7-4.6c0-2,0.6-3.6,1.8-4.9c1.2-1.3,2.9-1.9,5-1.9c1,0,1.8,0.1,2.6,0.3s1.5,0.4,2.1,0.6v11.9H224.7z M223,141.6v-8.2
		c-1-0.3-2-0.5-3-0.5c-1.6,0-2.9,0.5-3.7,1.4c-0.8,1-1.2,2.1-1.2,3.5c0,1.5,0.4,2.7,1.2,3.5s1.9,1.2,3.2,1.2
		C220.8,142.6,221.9,142.3,223,141.6z"/>
</g>
</svg>
