<?xml version="1.0" encoding="utf-8"?>
<!-- Generator: Adobe Illustrator 25.2.3, SVG Export Plug-In . SVG Version: 6.00 Build 0)  -->
<svg version="1.1" id="circle6" xmlns="http://www.w3.org/2000/svg" xmlns:xlink="http://www.w3.org/1999/xlink" x="0px" y="0px"
	 viewBox="0 0 302 246" style="enable-background:new 0 0 302 246;" xml:space="preserve">
<style type="text/css">
	.st0{enable-background:new    ;}
	.st1{fill:#111112;}
	.st2{fill:none;}
</style>
<g class="st0">
	<path d="M47.1,62.8h28.6l-28.2,44.9l0.2,0.3c1-0.3,2.5-0.7,4.6-0.9c2-0.3,4-0.4,6-0.4c9.5,0,17.7,3.4,24.5,10.2
		c6.8,6.8,10.2,15.4,10.2,25.8c0,11.7-4,21.3-12,28.9c-8,7.6-18,11.4-30.2,11.4c-12.7,0-23-3.7-30.9-11.1C12,164.5,8,154.8,8,142.7
		c0-10.7,3.7-22,11.1-34.2L47.1,62.8z M62,131.1c-2.8-3.1-6.7-4.7-11.6-4.7c-5,0-9,1.6-11.9,4.7c-2.9,3.1-4.4,7.1-4.4,12
		c0,5.3,1.5,9.4,4.6,12.2s7,4.3,11.7,4.3c4.9,0,8.7-1.5,11.6-4.6c2.8-3.1,4.3-7,4.3-11.9C66.3,138.2,64.9,134.2,62,131.1z"/>
</g>
<path id="Path_308" d="M179,0c-36,0-70.2,15.8-93.5,43.2v11.3C107.3,24.6,142.1,7,179,7c64,0.1,115.9,52,116,116
	c-0.1,64-52,115.9-116,116c-36.9,0-71.7-17.6-93.5-47.4v11.3C108.8,230.2,143,246,179,246c67.9-0.1,122.9-55.1,123-123
	C301.9,55.1,246.9,0.1,179,0z"/>
<g>
	<path d="M142.9,96.7c-0.7-0.3-1.5-0.6-2.4-0.8c-0.9-0.2-1.9-0.4-3-0.4c-2.3,0-4.1,0.7-5.5,2.1c-1.3,1.4-2,3.2-2,5.4
		c0,2.3,0.7,4.1,2,5.5s3,2.1,5.2,2.1c1.6,0,3.1-0.3,4.4-1v-5.2h-4.9v-1.7h6.7v8c-1.8,1.2-4,1.7-6.4,1.7c-2.7,0-4.8-0.8-6.5-2.5
		c-1.7-1.7-2.5-4-2.5-6.8c0-2.8,0.9-5.1,2.6-6.8c1.7-1.7,4.1-2.6,7-2.6c2,0,3.7,0.3,5.2,1V96.7z"/>
	<path d="M157.6,106.4H148c0,1.3,0.4,2.3,1.2,3.2c0.8,0.8,1.9,1.3,3.4,1.3c0.8,0,1.6-0.1,2.3-0.4c0.7-0.2,1.4-0.5,1.9-0.8l0,1.7
		c-1.4,0.7-2.9,1.1-4.5,1.1c-1.9,0-3.4-0.6-4.5-1.7c-1.1-1.1-1.7-2.7-1.7-4.7c0-2,0.6-3.6,1.7-4.9c1.1-1.2,2.6-1.8,4.5-1.8
		c1.8,0,3.1,0.6,4,1.7s1.3,2.6,1.3,4.3C157.7,105.6,157.6,106,157.6,106.4z M155.8,105c0-1.2-0.3-2.2-0.9-2.9s-1.5-1.1-2.7-1.1
		c-1.2,0-2.1,0.4-2.8,1.1c-0.7,0.7-1.2,1.7-1.3,2.9H155.8z"/>
	<path d="M166.6,99.7v1.6h-4v6.6c0,1,0.2,1.7,0.6,2.2c0.4,0.4,1,0.7,1.8,0.7c0.4,0,1-0.1,1.6-0.2v1.5c-0.6,0.2-1.3,0.3-2.1,0.3
		c-2.5,0-3.7-1.4-3.7-4.2v-6.8h-2.2v-1.6h2.2V96h1.8v3.6H166.6z"/>
	<path d="M192,112.1V97.5h-0.1l-6.6,13.9h-1.4l-6.6-13.9h-0.1v14.6h-1.7V94h2l7,14.8h0.1l7.1-14.8h2v18.1H192z"/>
	<path d="M198.8,110.6c-1.2-1.2-1.8-2.8-1.8-4.7c0-1.9,0.6-3.5,1.8-4.7c1.2-1.2,2.7-1.8,4.6-1.8c1.9,0,3.4,0.6,4.6,1.8
		s1.8,2.8,1.8,4.7c0,1.9-0.6,3.5-1.8,4.7c-1.2,1.2-2.7,1.8-4.6,1.8S200,111.8,198.8,110.6z M206.6,109.4c0.8-0.9,1.2-2.1,1.2-3.5
		c0-1.4-0.4-2.6-1.2-3.5c-0.8-0.9-1.9-1.4-3.3-1.4s-2.5,0.4-3.3,1.3c-0.8,0.9-1.2,2.1-1.2,3.5c0,1.4,0.4,2.6,1.3,3.5
		c0.8,0.9,1.9,1.4,3.3,1.4C204.7,110.8,205.8,110.3,206.6,109.4z"/>
	<path d="M219.6,101.2c-0.6-0.1-1.3-0.2-2.2-0.2c-0.5,0-1.1,0-1.6,0.1c-0.6,0.1-1,0.2-1.4,0.3v10.6h-1.8v-11.9
		c1.5-0.6,3.1-0.9,4.7-0.9c0.8,0,1.5,0.1,2.2,0.2V101.2z"/>
	<path d="M231.8,106.4h-9.6c0,1.3,0.4,2.3,1.2,3.2c0.8,0.8,1.9,1.3,3.4,1.3c0.8,0,1.6-0.1,2.3-0.4c0.7-0.2,1.4-0.5,1.9-0.8l0,1.7
		c-1.4,0.7-2.9,1.1-4.5,1.1c-1.9,0-3.4-0.6-4.5-1.7c-1.1-1.1-1.7-2.7-1.7-4.7c0-2,0.6-3.6,1.7-4.9c1.1-1.2,2.6-1.8,4.5-1.8
		c1.8,0,3.1,0.6,4,1.7s1.3,2.6,1.3,4.3C231.9,105.6,231.8,106,231.8,106.4z M230,105c0-1.2-0.3-2.2-0.9-2.9s-1.5-1.1-2.7-1.1
		c-1.2,0-2.1,0.4-2.8,1.1c-0.7,0.7-1.2,1.7-1.3,2.9H230z"/>
	<path d="M168.3,143.3v-8.5h-10.7v8.5h-1.8v-18.1h1.8v7.9h10.7v-7.9h1.8v18.1H168.3z"/>
	<path d="M184.8,137.6h-9.6c0,1.3,0.4,2.3,1.2,3.2c0.8,0.8,1.9,1.3,3.4,1.3c0.8,0,1.6-0.1,2.3-0.4c0.7-0.2,1.4-0.5,1.9-0.8l0,1.7
		c-1.4,0.7-2.9,1.1-4.5,1.1c-1.9,0-3.4-0.6-4.5-1.7c-1.1-1.1-1.7-2.7-1.7-4.7c0-2,0.6-3.6,1.7-4.9c1.1-1.2,2.6-1.8,4.5-1.8
		c1.8,0,3.1,0.6,4,1.7s1.3,2.6,1.3,4.3C184.8,136.8,184.8,137.2,184.8,137.6z M183,136.2c0-1.2-0.3-2.2-0.9-2.9s-1.5-1.1-2.7-1.1
		c-1.2,0-2.1,0.4-2.8,1.1c-0.7,0.7-1.2,1.7-1.3,2.9H183z"/>
	<path d="M187.6,143.3v-19.2h1.8v19.2H187.6z"/>
	<path d="M195.1,143v6.4h-1.8v-17.6c1.7-0.8,3.5-1.2,5.3-1.2c1.9,0,3.4,0.6,4.5,1.7c1.1,1.1,1.7,2.7,1.7,4.6c0,2-0.6,3.7-1.8,4.9
		c-1.2,1.2-2.8,1.9-4.7,1.9C197,143.7,195.9,143.4,195.1,143z M195.1,141.2c0.9,0.5,1.9,0.7,3.2,0.7c1.4,0,2.5-0.4,3.4-1.3
		c0.9-0.9,1.3-2.1,1.3-3.7c0-1.4-0.4-2.6-1.2-3.4c-0.8-0.8-1.9-1.3-3.3-1.3c-0.6,0-1.2,0.1-1.8,0.2s-1.1,0.3-1.5,0.5V141.2z"/>
</g>
</svg>
