<?xml version="1.0" encoding="utf-8"?>
<!-- Generator: Adobe Illustrator 25.2.3, SVG Export Plug-In . SVG Version: 6.00 Build 0)  -->
<svg version="1.1" id="circle1" xmlns="http://www.w3.org/2000/svg" xmlns:xlink="http://www.w3.org/1999/xlink" x="0px" y="0px"
	 viewBox="0 0 317.5 246" style="enable-background:new 0 0 317.5 246;" xml:space="preserve">
<style type="text/css">
	.st0{enable-background:new    ;}
	.st1{fill:#111112;}
	.st2{fill:none;}
</style>
<g class="st0">
	<path d="M11.7,81.7L54.2,61h15v121H43V92.9l-31.3,15.6C11.7,108.5,11.7,81.7,11.7,81.7z"/>
</g>
<path id="Path_303_3_" d="M194.5,0c-36,0-70.2,15.8-93.5,43.2v11.3C122.8,24.6,157.6,7,194.5,7c64,0.1,115.9,52,116,116
	c-0.1,64-52,115.9-116,116c-36.9,0-71.7-17.6-93.5-47.4v11.3c23.3,27.4,57.5,43.2,93.5,43.2c67.9-0.1,122.9-55.1,123-123
	C317.4,55.1,262.4,0.1,194.5,0z"/>
<g>
	<path d="M156.1,112.8V94.7h1.8v18.1H156.1z"/>
	<path d="M162.9,102c1.2-1.2,2.8-1.9,4.8-1.9c1.1,0,2.1,0.2,3.2,0.6v-7.1h1.8V112c-1.6,0.8-3.3,1.2-5.1,1.2c-2,0-3.5-0.6-4.7-1.7
		c-1.2-1.2-1.7-2.7-1.7-4.6C161.2,104.8,161.7,103.2,162.9,102z M169.4,111.3c0.6-0.1,1.1-0.2,1.5-0.4v-8.5c-0.5-0.2-1-0.3-1.5-0.5
		c-0.5-0.1-1-0.2-1.6-0.2c-1.5,0-2.6,0.5-3.5,1.4s-1.3,2.1-1.3,3.6c0,1.4,0.4,2.5,1.2,3.4s2,1.3,3.5,1.3
		C168.3,111.5,168.8,111.4,169.4,111.3z"/>
	<path d="M187.1,107.1h-9.6c0,1.3,0.4,2.3,1.2,3.2c0.8,0.8,1.9,1.3,3.4,1.3c0.8,0,1.6-0.1,2.3-0.4c0.7-0.2,1.4-0.5,1.9-0.8v1.7
		c-1.4,0.7-2.9,1.1-4.5,1.1c-1.9,0-3.4-0.6-4.5-1.7s-1.7-2.7-1.7-4.7s0.6-3.6,1.7-4.9c1.1-1.2,2.6-1.8,4.5-1.8c1.8,0,3.1,0.6,4,1.7
		s1.3,2.6,1.3,4.3C187.2,106.3,187.2,106.7,187.1,107.1z M185.4,105.7c0-1.2-0.3-2.2-0.9-2.9s-1.5-1.1-2.7-1.1s-2.1,0.4-2.8,1.1
		s-1.2,1.7-1.3,2.9H185.4z"/>
	<path d="M200.5,112.8h-1.8v-8c0-1.1-0.2-1.9-0.7-2.4s-1.4-0.7-2.6-0.7c-0.6,0-1.3,0.1-1.9,0.2c-0.6,0.1-1.2,0.2-1.6,0.4v10.5H190
		v-11.9c2-0.5,3.9-0.8,5.4-0.8c1.8,0,3.1,0.4,3.9,1.1c0.8,0.7,1.2,1.8,1.2,3.3L200.5,112.8L200.5,112.8z"/>
	<path d="M210.3,100.4v1.6h-4v6.6c0,1,0.2,1.7,0.6,2.2c0.4,0.4,1,0.7,1.8,0.7c0.4,0,1-0.1,1.6-0.2v1.5c-0.6,0.2-1.3,0.3-2.1,0.3
		c-2.5,0-3.7-1.4-3.7-4.2v-6.8h-2.2v-1.6h2.2v-3.6h1.8v3.6L210.3,100.4L210.3,100.4z"/>
	<path d="M212.8,97.4v-2.1h2.1v2.1H212.8z M213,112.8v-12.4h1.8v12.4H213z"/>
	<path d="M225.9,95.3c-0.6-0.2-1.2-0.3-1.9-0.3c-1.9,0-2.9,1.1-2.9,3.3v2.1h3.9v1.6h-3.9v10.8h-1.8V102h-2v-1.6h2v-2.2
		c0-1.5,0.4-2.6,1.2-3.5s1.9-1.3,3.4-1.3c0.7,0,1.3,0.1,2,0.2V95.3z"/>
	<path d="M227.5,118.9l2.7-6.1l-5-12.4h2l2.7,7c0.6,1.4,1,2.5,1.3,3.4h0.1c0.4-1.1,0.8-2.2,1.3-3.4l3-7h2l-8,18.5H227.5z"/>
	<path d="M145.8,137.8v-11.9h1.9v11.7c0,1.7,0.4,3,1.3,3.7c0.8,0.8,2.3,1.2,4.2,1.2c0.9,0,1.8-0.1,2.6-0.2s1.6-0.3,2.2-0.5v-15.9
		h1.9v17.2c-1.1,0.3-2.1,0.6-3.2,0.9c-1.1,0.2-2.3,0.3-3.5,0.3c-2.6,0-4.4-0.5-5.6-1.6C146.4,141.7,145.8,140.1,145.8,137.8z"/>
	<path d="M171.4,133.6c-1.1-0.5-2.3-0.7-3.5-0.7c-1,0-1.7,0.2-2.1,0.5s-0.7,0.9-0.7,1.5s0.3,1,0.8,1.3s1.5,0.7,2.7,1
		s2.2,0.8,2.7,1.4c0.5,0.5,0.8,1.2,0.8,2.1c0,1-0.4,1.9-1.2,2.5c-0.8,0.7-2,1-3.5,1c-0.8,0-1.6-0.1-2.3-0.2
		c-0.7-0.1-1.3-0.3-1.7-0.5v-1.7c0.5,0.3,1.1,0.5,1.8,0.6c0.7,0.2,1.5,0.3,2.2,0.3c1,0,1.7-0.2,2.2-0.5s0.7-0.8,0.7-1.4
		c0-0.7-0.4-1.3-1.1-1.5c-0.7-0.3-1.6-0.6-2.6-0.9c-1-0.3-1.8-0.7-2.5-1.2c-0.6-0.5-0.9-1.3-0.9-2.3c0-1.1,0.4-1.9,1.2-2.6
		c0.8-0.7,2-1,3.5-1c0.7,0,1.3,0.1,1.9,0.2c0.6,0.1,1.1,0.2,1.5,0.4v1.7H171.4z"/>
	<path d="M185.7,138.3h-9.6c0,1.3,0.4,2.3,1.2,3.2c0.8,0.8,1.9,1.3,3.4,1.3c0.8,0,1.6-0.1,2.3-0.4c0.7-0.2,1.4-0.5,1.9-0.8v1.7
		c-1.4,0.7-2.9,1.1-4.5,1.1c-1.9,0-3.4-0.6-4.5-1.7c-1.1-1.1-1.7-2.7-1.7-4.7s0.6-3.6,1.7-4.9s2.6-1.8,4.5-1.8c1.8,0,3.1,0.6,4,1.7
		s1.3,2.6,1.3,4.3C185.7,137.5,185.7,137.9,185.7,138.3z M183.9,136.9c0-1.2-0.3-2.2-0.9-2.9c-0.6-0.7-1.5-1.1-2.7-1.1
		s-2.1,0.4-2.8,1.1c-0.7,0.7-1.2,1.7-1.3,2.9H183.9z"/>
	<path d="M208.2,128.6c-1.5-0.7-3.2-1.1-5-1.1c-2.2,0-4,0.7-5.3,2s-1.9,3.1-1.9,5.4c0,2.3,0.7,4.2,2,5.5c1.3,1.4,3.1,2.1,5.2,2.1
		c1.1,0,2.1-0.1,3-0.4c0.8-0.2,1.6-0.6,2.3-1v2c-0.7,0.4-1.4,0.7-2.3,0.9c-0.9,0.2-1.9,0.3-3.2,0.3c-2.7,0-4.8-0.9-6.5-2.6
		c-1.7-1.7-2.5-4-2.5-6.8s0.8-5.1,2.5-6.8c1.7-1.7,3.9-2.5,6.8-2.5c1.8,0,3.4,0.3,4.9,0.9V128.6z"/>
	<path d="M220.9,143.4c-1.6,0.6-3.4,0.9-5.1,0.9c-1.6,0-2.9-0.3-3.7-1c-0.9-0.6-1.3-1.6-1.3-2.9c0-1.2,0.4-2.2,1.3-2.9
		c0.9-0.7,2.3-1.1,4.1-1.1c1.1,0,2.1,0.1,2.9,0.3v-0.6c0-1.2-0.3-2.1-0.8-2.5s-1.4-0.7-2.5-0.7c-1.2,0-2.5,0.3-4.1,1v-1.6
		c0.5-0.2,1.2-0.5,2-0.7s1.6-0.3,2.4-0.3c1.7,0,3,0.4,3.7,1.2c0.8,0.8,1.1,2,1.1,3.6L220.9,143.4L220.9,143.4z M219.2,142.3v-4.1
		l-1.1-0.2c-0.6-0.1-1.2-0.1-1.9-0.1c-1.2,0-2.1,0.2-2.7,0.7c-0.6,0.4-0.9,1-0.9,1.8s0.3,1.4,0.8,1.8c0.5,0.4,1.4,0.6,2.6,0.6
		C216.9,142.8,218,142.6,219.2,142.3z"/>
	<path d="M232.1,133.6c-1.1-0.5-2.3-0.7-3.5-0.7c-1,0-1.7,0.2-2.1,0.5s-0.7,0.9-0.7,1.5s0.3,1,0.8,1.3s1.5,0.7,2.7,1
		s2.2,0.8,2.7,1.4c0.5,0.5,0.8,1.2,0.8,2.1c0,1-0.4,1.9-1.2,2.5c-0.8,0.7-2,1-3.5,1c-0.8,0-1.6-0.1-2.3-0.2
		c-0.7-0.1-1.3-0.3-1.7-0.5v-1.7c0.5,0.3,1.1,0.5,1.8,0.6c0.7,0.2,1.5,0.3,2.2,0.3c1,0,1.7-0.2,2.2-0.5s0.7-0.8,0.7-1.4
		c0-0.7-0.4-1.3-1.1-1.5c-0.7-0.3-1.6-0.6-2.6-0.9c-1-0.3-1.8-0.7-2.5-1.2c-0.6-0.5-0.9-1.3-0.9-2.3c0-1.1,0.4-1.9,1.2-2.6
		c0.8-0.7,2-1,3.5-1c0.7,0,1.3,0.1,1.9,0.2c0.6,0.1,1.1,0.2,1.5,0.4v1.7H232.1z"/>
	<path d="M246.4,138.3h-9.6c0,1.3,0.4,2.3,1.2,3.2c0.8,0.8,1.9,1.3,3.4,1.3c0.8,0,1.6-0.1,2.3-0.4c0.7-0.2,1.4-0.5,1.9-0.8v1.7
		c-1.4,0.7-2.9,1.1-4.5,1.1c-1.9,0-3.4-0.6-4.5-1.7c-1.1-1.1-1.7-2.7-1.7-4.7s0.6-3.6,1.7-4.9s2.6-1.8,4.5-1.8c1.8,0,3.1,0.6,4,1.7
		s1.3,2.6,1.3,4.3C246.4,137.5,246.4,137.9,246.4,138.3z M244.6,136.9c0-1.2-0.3-2.2-0.9-2.9c-0.6-0.7-1.5-1.1-2.7-1.1
		s-2.1,0.4-2.8,1.1c-0.7,0.7-1.2,1.7-1.3,2.9H244.6z"/>
</g>
</svg>
