<?xml version="1.0" encoding="utf-8"?>
<!-- Generator: Adobe Illustrator 25.2.3, SVG Export Plug-In . SVG Version: 6.00 Build 0)  -->
<svg version="1.1" id="circle2" xmlns="http://www.w3.org/2000/svg" xmlns:xlink="http://www.w3.org/1999/xlink" x="0px" y="0px"
	 viewBox="0 0 302 246" style="enable-background:new 0 0 302 246;" xml:space="preserve">
<style type="text/css">
	.st0{enable-background:new    ;}
	.st1{fill:#111112;}
	.st2{fill:none;}
</style>
<g class="st0">
	<path d="M83,119.4c-3.7,6.6-11.7,14.9-23.8,24.9L42.5,158h47.6v24H8.5v-21.4l35.9-32.5c6.6-5.9,11.2-10.8,13.9-14.7
		c2.7-3.9,4-7.8,4-11.8c0-5.1-1.5-9.1-4.6-12s-7.8-4.3-14.1-4.3c-10.1,0-20,3.5-29.8,10.4V70.3c4.1-2.5,9.1-4.5,15-6.1
		c6-1.6,12.6-2.4,20-2.4c13.5,0,23.5,3.3,30,9.9s9.8,15.2,9.8,25.8C88.6,105.4,86.7,112.7,83,119.4z"/>
</g>
<path id="Path_304" d="M179,0c-36,0-70.2,15.8-93.5,43.2v11.3C107.3,24.6,142.1,7,179,7c64,0.1,115.9,52,116,116
	c-0.1,64-52,115.9-116,116c-36.9,0-71.7-17.6-93.5-47.4v11.3C108.8,230.2,143,246,179,246c67.9-0.1,122.9-55.1,123-123
	C301.9,55.1,246.9,0.1,179,0z"/>
<g>
	<path d="M154.4,105.3l5.4,7.5h-2.4l-5.1-7.2h-4.1v7.2h-1.8V94.7h6c2.3,0,4,0.5,5,1.4s1.5,2.2,1.5,3.9c0,1.4-0.4,2.5-1.2,3.4
		S155.8,105,154.4,105.3z M148.3,103.9h4.3c1.5,0,2.6-0.4,3.3-1.1s1.1-1.6,1.1-2.7c0-1.2-0.4-2.1-1.1-2.7c-0.7-0.6-1.9-0.9-3.6-0.9
		h-4V103.9z"/>
	<path d="M172.4,107.1h-9.6c0,1.3,0.4,2.3,1.2,3.2c0.8,0.8,1.9,1.3,3.4,1.3c0.8,0,1.6-0.1,2.3-0.4c0.7-0.2,1.4-0.5,1.9-0.8v1.7
		c-1.4,0.7-2.9,1.1-4.5,1.1c-1.9,0-3.4-0.6-4.5-1.7s-1.7-2.7-1.7-4.7s0.6-3.6,1.7-4.9c1.1-1.2,2.6-1.8,4.5-1.8c1.8,0,3.1,0.6,4,1.7
		s1.3,2.6,1.3,4.3C172.6,106.3,172.6,106.7,172.4,107.1z M170.8,105.7c0-1.2-0.3-2.2-0.9-2.9s-1.5-1.1-2.7-1.1s-2.1,0.4-2.8,1.1
		s-1.2,1.7-1.3,2.9H170.8z"/>
	<path d="M178.6,112.8l-5-12.4h1.9l2.8,7.2c0.5,1.4,0.9,2.4,1.1,3.1h0.1c0.3-0.7,0.7-1.8,1.3-3.2l3-7.2h1.9l-5.4,12.4L178.6,112.8
		L178.6,112.8z"/>
	<path d="M187.4,97.4v-2.1h2.1v2.1H187.4z M187.6,112.8v-12.4h1.8v12.4H187.6z"/>
	<path d="M203.8,107.1h-9.6c0,1.3,0.4,2.3,1.2,3.2c0.8,0.8,1.9,1.3,3.4,1.3c0.8,0,1.6-0.1,2.3-0.4c0.7-0.2,1.4-0.5,1.9-0.8v1.7
		c-1.4,0.7-2.9,1.1-4.5,1.1c-1.9,0-3.4-0.6-4.5-1.7s-1.7-2.7-1.7-4.7s0.6-3.6,1.7-4.9c1.1-1.2,2.6-1.8,4.5-1.8c1.8,0,3.1,0.6,4,1.7
		s1.3,2.6,1.3,4.3C203.8,106.3,203.8,106.7,203.8,107.1z M202.1,105.7c0-1.2-0.3-2.2-0.9-2.9s-1.5-1.1-2.7-1.1s-2.1,0.4-2.8,1.1
		s-1.2,1.7-1.3,2.9H202.1z"/>
	<path d="M218.6,112.8l-2.8-7.4c-0.4-1.2-0.7-2.1-0.8-2.7h-0.1c-0.2,0.8-0.6,1.7-0.9,2.7l-2.8,7.4h-1.7l-4.2-12.4h1.8l2.7,8.3
		c0.2,0.6,0.4,1.3,0.5,1.9h0.1c0.2-0.9,0.5-1.7,0.8-2.3l3-7.9h1.6l3,8.3c0.2,0.4,0.4,1,0.6,1.9h0.1c0.1-0.4,0.3-1.1,0.6-1.9l3-8.3
		h1.9l-4.7,12.4H218.6z"/>
	<path d="M144.6,128.6c-0.7-0.3-1.5-0.6-2.4-0.8s-1.9-0.4-3-0.4c-2.3,0-4.1,0.7-5.5,2.1c-1.3,1.4-2,3.2-2,5.4c0,2.3,0.7,4.1,2,5.5
		s3,2.1,5.2,2.1c1.6,0,3.1-0.3,4.4-1v-5.2h-4.9v-1.7h6.7v8c-1.8,1.2-4,1.7-6.4,1.7c-2.7,0-4.8-0.8-6.5-2.5s-2.5-4-2.5-6.8
		s0.9-5.1,2.6-6.8s4.1-2.6,7-2.6c2,0,3.7,0.3,5.2,1L144.6,128.6L144.6,128.6z"/>
	<path d="M148.6,139.6v-8h1.8v7.7c0,1.1,0.3,2,0.8,2.5s1.5,0.8,3,0.8c0.9,0,2-0.1,3.1-0.4v-10.6h1.8v12c-2,0.5-3.7,0.8-5.1,0.8
		c-1.9,0-3.3-0.4-4.2-1.2C149.1,142.3,148.6,141.1,148.6,139.6z"/>
	<path d="M172.3,143.4c-1.6,0.6-3.4,0.9-5.1,0.9c-1.6,0-2.9-0.3-3.7-1c-0.9-0.7-1.3-1.6-1.3-2.9c0-1.2,0.4-2.2,1.3-2.9
		c0.9-0.7,2.3-1.1,4.1-1.1c1.1,0,2.1,0.1,2.9,0.3v-0.6c0-1.2-0.3-2.1-0.8-2.5c-0.6-0.5-1.4-0.7-2.5-0.7c-1.2,0-2.5,0.3-4.1,1v-1.6
		c0.5-0.2,1.2-0.5,2-0.7s1.6-0.3,2.4-0.3c1.7,0,3,0.4,3.7,1.2s1.1,2,1.1,3.6L172.3,143.4L172.3,143.4z M170.6,142.3v-4.1l-1.1-0.2
		c-0.6-0.1-1.2-0.1-1.9-0.1c-1.2,0-2.1,0.2-2.7,0.7c-0.6,0.4-0.9,1-0.9,1.8s0.3,1.4,0.8,1.8c0.5,0.4,1.4,0.6,2.6,0.6
		C168.3,142.8,169.4,142.6,170.6,142.3z"/>
	<path d="M182.9,133.1c-0.6-0.1-1.3-0.2-2.2-0.2c-0.5,0-1.1,0-1.6,0.1c-0.6,0.1-1,0.2-1.4,0.3V144h-1.8v-11.9
		c1.5-0.6,3.1-0.9,4.7-0.9c0.8,0,1.5,0.1,2.2,0.2v1.7H182.9z"/>
	<path d="M185.4,133.1c1.2-1.2,2.8-1.9,4.8-1.9c1.1,0,2.1,0.2,3.2,0.6v-7.1h1.8v18.4c-1.6,0.8-3.3,1.2-5.1,1.2c-2,0-3.5-0.6-4.7-1.7
		c-1.2-1.2-1.7-2.7-1.7-4.6C183.8,136,184.3,134.4,185.4,133.1z M191.9,142.5c0.6-0.1,1.1-0.2,1.5-0.4v-8.5c-0.5-0.2-1-0.3-1.5-0.5
		c-0.5-0.1-1-0.2-1.6-0.2c-1.5,0-2.6,0.5-3.5,1.4s-1.3,2.1-1.3,3.6c0,1.4,0.4,2.5,1.2,3.4s2,1.3,3.5,1.3
		C190.8,142.6,191.4,142.6,191.9,142.5z"/>
	<path d="M206.1,133.1c-0.6-0.1-1.3-0.2-2.2-0.2c-0.5,0-1.1,0-1.6,0.1c-0.6,0.1-1,0.2-1.4,0.3V144h-1.8v-11.9
		c1.5-0.6,3.1-0.9,4.7-0.9c0.8,0,1.5,0.1,2.2,0.2v1.7H206.1z"/>
	<path d="M217.1,143.4c-1.6,0.6-3.4,0.9-5.1,0.9c-1.6,0-2.9-0.3-3.7-1c-0.9-0.7-1.3-1.6-1.3-2.9c0-1.2,0.4-2.2,1.3-2.9
		c0.9-0.7,2.3-1.1,4.1-1.1c1.1,0,2.1,0.1,2.9,0.3v-0.6c0-1.2-0.3-2.1-0.8-2.5c-0.6-0.5-1.4-0.7-2.5-0.7c-1.2,0-2.5,0.3-4.1,1v-1.6
		c0.5-0.2,1.2-0.5,2-0.7s1.6-0.3,2.4-0.3c1.7,0,3,0.4,3.7,1.2s1.1,2,1.1,3.6L217.1,143.4L217.1,143.4z M215.3,142.3v-4.1l-1.1-0.2
		c-0.6-0.1-1.2-0.1-1.9-0.1c-1.2,0-2.1,0.2-2.7,0.7c-0.6,0.4-0.9,1-0.9,1.8s0.3,1.4,0.8,1.8c0.5,0.4,1.4,0.6,2.6,0.6
		C213.1,142.8,214.3,142.6,215.3,142.3z"/>
	<path d="M220.8,128.6v-2.1h2.1v2.1H220.8z M220.8,144v-12.4h1.8V144H220.8z"/>
	<path d="M226.4,144v-19.2h1.8V144H226.4z"/>
	<path d="M239.6,133.5c-1.1-0.5-2.3-0.7-3.5-0.7c-1,0-1.7,0.2-2.1,0.5c-0.5,0.4-0.7,0.9-0.7,1.5s0.3,1,0.8,1.3s1.5,0.7,2.7,1
		s2.2,0.8,2.7,1.4c0.5,0.5,0.8,1.2,0.8,2.1c0,1-0.4,1.9-1.2,2.5c-0.8,0.7-2,1-3.5,1c-0.8,0-1.6-0.1-2.3-0.2
		c-0.7-0.1-1.3-0.3-1.7-0.5v-1.7c0.5,0.3,1.1,0.5,1.8,0.6s1.5,0.3,2.2,0.3c1,0,1.7-0.2,2.2-0.5s0.7-0.8,0.7-1.4
		c0-0.7-0.4-1.3-1.1-1.5c-0.7-0.3-1.6-0.6-2.6-0.9c-1-0.3-1.8-0.7-2.5-1.2s-0.9-1.3-0.9-2.3c0-1.1,0.4-1.9,1.2-2.6s2-1,3.5-1
		c0.7,0,1.3,0.1,1.9,0.2s1.1,0.2,1.5,0.4v1.7H239.6z"/>
</g>
</svg>
