<?xml version="1.0" encoding="utf-8"?>
<!-- Generator: Adobe Illustrator 25.2.3, SVG Export Plug-In . SVG Version: 6.00 Build 0)  -->
<svg version="1.1" id="circle5" xmlns="http://www.w3.org/2000/svg" xmlns:xlink="http://www.w3.org/1999/xlink" x="0px" y="0px"
	 viewBox="0 0 302 246" style="enable-background:new 0 0 302 246;" xml:space="preserve">
<style type="text/css">
	.st0{enable-background:new    ;}
	.st1{fill:#111112;}
	.st2{fill:none;}
</style>
<g class="st0">
	<path d="M55.8,130.3c-4.3-2.6-10.6-3.9-18.9-3.9c-6.7,0-14.5,0.6-23.5,1.9l3.7-65.5h67.5v24H39.8L38.6,105c2.3-0.2,4.9-0.3,8-0.3
		c13.8,0,24.3,3.2,31.4,9.6c7.1,6.4,10.7,15.7,10.7,27.8c0,12.5-4.2,22.4-12.5,29.8c-8.3,7.4-19.8,11.1-34.4,11.1
		c-6.2,0-12-0.5-17.3-1.5s-9.9-2.4-13.6-4.3v-24c4.8,1.9,9.3,3.5,13.7,4.6s9.6,1.7,15.7,1.7c7.7,0,13.3-1.5,16.7-4.6
		c3.5-3.1,5.2-7.1,5.2-12.1C62.2,137.1,60.1,132.9,55.8,130.3z"/>
</g>
<path id="Path_307" d="M179,0c-36,0-70.2,15.8-93.5,43.2v11.3C107.3,24.6,142.1,7,179,7c64,0.1,115.9,52,116,116
	c-0.1,64-52,115.9-116,116c-36.9,0-71.7-17.6-93.5-47.4v11.3C108.8,230.2,143,246,179,246c67.9-0.1,122.9-55.1,123-123
	C301.9,55.1,246.9,0.1,179,0z"/>
<g>
	<path d="M162.5,96.4c-0.8-0.3-1.6-0.6-2.3-0.8s-1.6-0.3-2.5-0.3c-1.4,0-2.5,0.3-3.3,0.8c-0.8,0.6-1.1,1.3-1.1,2.3
		c0,0.9,0.4,1.6,1.1,2.1c0.7,0.5,2,1,3.8,1.5s3.2,1.1,4,1.9s1.2,1.8,1.2,3.1c0,1.5-0.6,2.8-1.7,3.7c-1.1,1-2.8,1.5-4.8,1.5
		c-2.2,0-4.1-0.4-5.5-1.2v-2c0.7,0.4,1.5,0.8,2.5,1.1c0.9,0.3,2,0.4,3.1,0.4c1.5,0,2.6-0.3,3.4-0.9c0.8-0.6,1.2-1.4,1.2-2.4
		c0-0.9-0.3-1.6-0.9-2.1c-0.6-0.5-1.9-1-3.9-1.5s-3.4-1.2-4.2-2s-1.2-1.8-1.2-3.1c0-1.5,0.6-2.7,1.8-3.6s2.7-1.4,4.7-1.4
		c1,0,1.8,0.1,2.6,0.3c0.8,0.2,1.5,0.4,2.1,0.6v2H162.5z"/>
	<path d="M166.4,107.5v-8h1.8v7.7c0,1.1,0.3,2,0.8,2.5s1.5,0.8,3,0.8c0.9,0,2-0.1,3.1-0.4V99.5h1.8v12c-2,0.5-3.7,0.8-5.1,0.8
		c-1.9,0-3.3-0.4-4.2-1.2C166.9,110.2,166.4,109,166.4,107.5z"/>
	<path d="M190.4,110.4c-1.2,1.2-2.9,1.8-5,1.8c-1.8,0-3.4-0.3-4.7-0.9V92.7h1.8v7.5c1.1-0.7,2.4-1.1,3.9-1.1c1.7,0,3.1,0.6,4.2,1.8
		c1.1,1.2,1.6,2.7,1.6,4.5C192.3,107.6,191.7,109.2,190.4,110.4z M182.6,110.1c0.7,0.3,1.7,0.5,2.8,0.5c1.6,0,2.8-0.4,3.7-1.3
		s1.3-2.1,1.3-3.7c0-1.4-0.4-2.5-1.1-3.3c-0.8-0.9-1.8-1.3-3.2-1.3c-0.7,0-1.3,0.1-1.9,0.3c-0.6,0.2-1.2,0.5-1.6,0.8V110.1z"/>
	<path d="M213.4,111.9h-1.8v-8.3c0-0.9-0.2-1.6-0.7-2.1s-1.3-0.7-2.4-0.7c-0.6,0-1.2,0.1-1.9,0.2c-0.7,0.2-1.2,0.4-1.6,0.6
		c0.2,0.5,0.3,1.1,0.3,1.9v8.4h-1.8v-8.3c0-1-0.3-1.7-0.8-2.1s-1.3-0.6-2.5-0.6c-1,0-2.1,0.1-3.1,0.4v10.6h-1.8V100
		c1.9-0.5,3.6-0.8,5.1-0.8c0.8,0,1.6,0.1,2.3,0.3c0.7,0.2,1.2,0.5,1.5,0.8c1.5-0.7,3.1-1.1,4.7-1.1c1.6,0,2.8,0.4,3.5,1.1s1,1.7,1,3
		V111.9z"/>
	<path d="M216.9,96.5v-2.1h2.1v2.1H216.9z M217.1,111.9V99.5h1.8v12.4H217.1z"/>
	<path d="M228.8,99.5v1.6h-4v6.6c0,1,0.2,1.7,0.6,2.2c0.4,0.4,1,0.7,1.8,0.7c0.4,0,1-0.1,1.6-0.2v1.5c-0.6,0.2-1.3,0.3-2.1,0.3
		c-2.5,0-3.7-1.4-3.7-4.2v-6.8h-2.2v-1.6h2.2v-3.7h1.8v3.6H228.8z"/>
	<path d="M105.4,143.1V125h1.8v18.1H105.4z"/>
	<path d="M112.2,132.2c1.2-1.2,2.8-1.9,4.8-1.9c1.1,0,2.1,0.2,3.2,0.6v-7h1.8v18.4c-1.6,0.8-3.3,1.2-5.1,1.2c-2,0-3.5-0.6-4.7-1.7
		c-1.2-1.2-1.7-2.7-1.7-4.6C110.5,135.1,111.1,133.5,112.2,132.2z M118.7,141.6c0.6-0.1,1.1-0.2,1.5-0.4v-8.5
		c-0.5-0.2-1-0.3-1.5-0.5c-0.5-0.1-1-0.2-1.6-0.2c-1.5,0-2.6,0.5-3.5,1.4s-1.3,2.1-1.3,3.6c0,1.4,0.4,2.5,1.2,3.4
		c0.8,0.9,2,1.3,3.5,1.3C117.6,141.7,118.2,141.7,118.7,141.6z"/>
	<path d="M136.5,137.4h-9.6c0,1.3,0.4,2.3,1.2,3.2c0.8,0.8,1.9,1.3,3.4,1.3c0.8,0,1.6-0.1,2.3-0.4c0.7-0.2,1.4-0.5,1.9-0.8v1.7
		c-1.4,0.7-2.9,1.1-4.5,1.1c-1.9,0-3.4-0.6-4.5-1.7c-1.1-1.1-1.7-2.7-1.7-4.7s0.6-3.6,1.7-4.9s2.6-1.8,4.5-1.8c1.8,0,3.1,0.6,4,1.7
		s1.3,2.6,1.3,4.3C136.5,136.6,136.5,137,136.5,137.4z M134.7,136c0-1.2-0.3-2.2-0.9-2.9s-1.5-1.1-2.7-1.1s-2.1,0.4-2.8,1.1
		c-0.7,0.7-1.2,1.7-1.3,2.9H134.7z"/>
	<path d="M148.7,142.5c-1.6,0.6-3.4,0.9-5.1,0.9c-1.6,0-2.9-0.3-3.7-1c-0.9-0.6-1.3-1.6-1.3-2.9c0-1.2,0.4-2.2,1.3-2.9
		c0.9-0.7,2.3-1.1,4.1-1.1c1.1,0,2.1,0.1,2.9,0.3v-0.6c0-1.2-0.3-2.1-0.8-2.5c-0.6-0.5-1.4-0.7-2.5-0.7c-1.2,0-2.5,0.3-4.1,1v-1.6
		c0.5-0.2,1.2-0.5,2-0.7s1.6-0.3,2.4-0.3c1.7,0,3,0.4,3.7,1.2c0.8,0.8,1.1,2,1.1,3.6L148.7,142.5L148.7,142.5z M147,141.4v-4.1
		l-1.1-0.2c-0.6-0.1-1.2-0.1-1.9-0.1c-1.2,0-2.1,0.2-2.7,0.7c-0.6,0.4-0.9,1-0.9,1.8s0.3,1.4,0.8,1.8c0.5,0.4,1.4,0.6,2.6,0.6
		C144.7,141.9,145.8,141.7,147,141.4z"/>
	<path d="M159.9,132.6c-1.1-0.5-2.3-0.7-3.5-0.7c-1,0-1.7,0.2-2.1,0.5c-0.5,0.4-0.7,0.9-0.7,1.5s0.3,1,0.8,1.3s1.5,0.7,2.7,1
		s2.2,0.8,2.7,1.4c0.5,0.5,0.8,1.2,0.8,2.1c0,1-0.4,1.9-1.2,2.5c-0.8,0.7-2,1-3.5,1c-0.8,0-1.6-0.1-2.3-0.2
		c-0.7-0.1-1.3-0.3-1.7-0.5v-1.7c0.5,0.3,1.1,0.5,1.8,0.7s1.5,0.3,2.2,0.3c1,0,1.7-0.2,2.2-0.5s0.7-0.8,0.7-1.4
		c0-0.7-0.4-1.3-1.1-1.5c-0.7-0.3-1.6-0.6-2.6-0.9c-1-0.3-1.8-0.7-2.5-1.2c-0.6-0.5-0.9-1.3-0.9-2.3c0-1.1,0.4-1.9,1.2-2.6
		c0.8-0.7,2-1,3.5-1c0.7,0,1.3,0.1,1.9,0.2c0.6,0.1,1.1,0.2,1.5,0.4v1.6H159.9z"/>
	<path d="M161.7,144.4l8.9-20.8h1.6l-8.9,20.8H161.7z"/>
	<path d="M184.7,127.6c-0.8-0.3-1.6-0.6-2.3-0.8s-1.6-0.3-2.5-0.3c-1.4,0-2.5,0.3-3.3,0.8c-0.8,0.6-1.1,1.3-1.1,2.3
		c0,0.9,0.4,1.6,1.1,2.1c0.7,0.5,2,1,3.8,1.5s3.2,1.1,4,1.9c0.8,0.8,1.2,1.8,1.2,3.1c0,1.5-0.6,2.8-1.7,3.7c-1.1,1-2.8,1.5-4.8,1.5
		c-2.2,0-4.1-0.4-5.5-1.2v-2c0.7,0.4,1.5,0.8,2.5,1.1c0.9,0.3,2,0.4,3.1,0.4c1.5,0,2.6-0.3,3.4-0.9c0.8-0.6,1.2-1.4,1.2-2.4
		c0-0.9-0.3-1.6-0.9-2.1c-0.6-0.5-1.9-1-3.9-1.5s-3.4-1.2-4.2-2s-1.2-1.8-1.2-3.1c0-1.5,0.6-2.7,1.8-3.6s2.7-1.4,4.7-1.4
		c1,0,1.8,0.1,2.6,0.3c0.8,0.2,1.5,0.4,2.1,0.6v2H184.7z"/>
	<path d="M189.7,141.6c-1.2-1.2-1.8-2.8-1.8-4.7s0.6-3.5,1.8-4.7s2.7-1.8,4.6-1.8c1.9,0,3.4,0.6,4.6,1.8s1.8,2.8,1.8,4.7
		s-0.6,3.5-1.8,4.7s-2.7,1.8-4.6,1.8S190.9,142.8,189.7,141.6z M197.6,140.4c0.8-0.9,1.2-2.1,1.2-3.5s-0.4-2.6-1.2-3.5
		s-1.9-1.4-3.3-1.4s-2.5,0.4-3.3,1.3c-0.8,0.9-1.2,2.1-1.2,3.5s0.4,2.6,1.3,3.5c0.8,0.9,1.9,1.4,3.3,1.4
		C195.7,141.8,196.8,141.3,197.6,140.4z"/>
	<path d="M203.7,143.1v-19.2h1.8v19.2H203.7z"/>
	<path d="M209.2,138.7v-8h1.8v7.7c0,1.1,0.3,2,0.8,2.5c0.6,0.6,1.5,0.8,3,0.8c0.9,0,2-0.1,3.1-0.4v-10.6h1.8v12
		c-2,0.5-3.7,0.8-5.1,0.8c-1.9,0-3.3-0.4-4.2-1.2C209.6,141.4,209.2,140.2,209.2,138.7z"/>
	<path d="M229.6,130.7v1.6h-4v6.6c0,1,0.2,1.7,0.6,2.2c0.4,0.4,1,0.7,1.8,0.7c0.4,0,1-0.1,1.6-0.2v1.5c-0.6,0.2-1.3,0.3-2.1,0.3
		c-2.5,0-3.7-1.4-3.7-4.2v-6.8h-2.2v-1.6h2.2v-3.6h1.8v3.6h4V130.7z"/>
	<path d="M232.1,127.7v-2.1h2.1v2.1H232.1z M232.2,143.1v-12.4h1.8v12.4H232.2z"/>
	<path d="M238.8,141.6c-1.2-1.2-1.8-2.8-1.8-4.7s0.6-3.5,1.8-4.7s2.7-1.8,4.6-1.8c1.9,0,3.4,0.6,4.6,1.8s1.8,2.8,1.8,4.7
		s-0.6,3.5-1.8,4.7s-2.7,1.8-4.6,1.8S240,142.8,238.8,141.6z M246.7,140.4c0.8-0.9,1.2-2.1,1.2-3.5s-0.4-2.6-1.2-3.5
		s-1.9-1.4-3.3-1.4s-2.5,0.4-3.3,1.3c-0.8,0.9-1.2,2.1-1.2,3.5s0.4,2.6,1.3,3.5c0.8,0.9,1.9,1.4,3.3,1.4
		C244.8,141.8,245.9,141.3,246.7,140.4z"/>
	<path d="M263.3,143.1h-1.8v-8c0-1.1-0.2-1.9-0.7-2.4s-1.4-0.7-2.6-0.7c-0.6,0-1.3,0.1-1.9,0.2c-0.6,0.1-1.2,0.2-1.6,0.4v10.5h-1.8
		v-11.9c2-0.5,3.9-0.8,5.4-0.8c1.8,0,3.1,0.4,3.9,1.1s1.2,1.8,1.2,3.3v8.3H263.3z"/>
	<path d="M274.4,132.6c-1.1-0.5-2.3-0.7-3.5-0.7c-1,0-1.7,0.2-2.1,0.5c-0.5,0.4-0.7,0.9-0.7,1.5s0.3,1,0.8,1.3s1.5,0.7,2.7,1
		s2.2,0.8,2.7,1.4c0.5,0.5,0.8,1.2,0.8,2.1c0,1-0.4,1.9-1.2,2.5c-0.8,0.7-2,1-3.5,1c-0.8,0-1.6-0.1-2.3-0.2
		c-0.7-0.1-1.3-0.3-1.7-0.5v-1.7c0.5,0.3,1.1,0.5,1.8,0.7c0.7,0.2,1.5,0.3,2.2,0.3c1,0,1.7-0.2,2.2-0.5s0.7-0.8,0.7-1.4
		c0-0.7-0.4-1.3-1.1-1.5c-0.7-0.3-1.6-0.6-2.6-0.9c-1-0.3-1.8-0.7-2.5-1.2c-0.6-0.5-0.9-1.3-0.9-2.3c0-1.1,0.4-1.9,1.2-2.6
		c0.8-0.7,2-1,3.5-1c0.7,0,1.3,0.1,1.9,0.2c0.6,0.1,1.1,0.2,1.5,0.4v1.6H274.4z"/>
</g>
</svg>
