<svg id="circle8" xmlns="http://www.w3.org/2000/svg" width="302" height="246" viewBox="0 0 302 246">
  <text id="Start_working_in_the_instance" data-name="Start working
in the instance" transform="translate(183 114)" fill="#111112" font-size="24" font-family="EMprint-Regular, EMprint"><tspan x="-70.164" y="0">Start working</tspan><tspan x="-74.268" y="29">in the instance</tspan></text>
  <rect id="Rectangle_24923" data-name="Rectangle 24923" width="202" height="239" transform="translate(100)" fill="none"/>
  <text id="_8" data-name="8" transform="translate(0 181)" fill="currentColor" font-size="170" font-family="EMprint-Bold, EMprint" font-weight="700"><tspan x="0" y="0">8</tspan></text>
  <path id="Path_310" data-name="Path 310" d="M954.5-336.5A122.765,122.765,0,0,0,861-293.323v11.25A115.908,115.908,0,0,1,954.5-329.5a116.132,116.132,0,0,1,116,116,116.132,116.132,0,0,1-116,116A115.908,115.908,0,0,1,861-144.927v11.25A122.765,122.765,0,0,0,954.5-90.5a123.14,123.14,0,0,0,123-123A123.14,123.14,0,0,0,954.5-336.5Z" transform="translate(-775.5 336.5)" fill="currentColor"/>
</svg>
