<svg id="circle7" xmlns="http://www.w3.org/2000/svg" width="317.5" height="246" viewBox="0 0 317.5 246">
  <text id="Move_your_sol_higher_env" data-name="Move_your_sol_higher_env" transform="translate(198 85)" fill="currentColor" font-size="24" font-family="EMprint-Regular, EMprint">
	<tspan x="-70.164" y="25">Build Your</tspan>
	<tspan x="-64.944" y="59">First Application </tspan>
	<!--tspan x="-72.668" y="58">Higher </tspan-->
	<!--tspan x="-64.944" y="87">Environments</tspan-->
  </text>
  <rect id="Rectangle_24922" data-name="Rectangle 24922" width="202" height="239" transform="translate(100)" fill="none"/>
  <text id="_7" data-name="7" transform="translate(0 181)" fill="currentColor" font-size="170" font-family="EMprint-Bold, EMprint" font-weight="700">
	<tspan x="0" y="0">6</tspan>
  </text>
  <path id="Path_309" data-name="Path 309" d="M954.5-336.5A122.765,122.765,0,0,0,861-293.323v11.25A115.908,115.908,0,0,1,954.5-329.5a116.132,116.132,0,0,1,116,116,116.132,116.132,0,0,1-116,116A115.908,115.908,0,0,1,861-144.927v11.25A122.765,122.765,0,0,0,954.5-90.5a123.14,123.14,0,0,0,123-123A123.14,123.14,0,0,0,954.5-336.5Z" transform="translate(-760 336.5)" fill="currentColor"/>
</svg>
